Coordinates
version=1
nRows=13
nColumns=36
inDegrees=yes

Units are S.I. units (second, meters, Newtons, ...)
If the header above contains a line with 'inDegrees', this indicates whether rotational values are in degrees (yes) or radians (no).

endheader
time	pelvis_tilt	pelvis_list	pelvis_rotation	pelvis_tx	pelvis_ty	pelvis_tz	hip_flexion_r	hip_adduction_r	hip_rotation_r	knee_angle_r	knee_angle_r_beta	ankle_angle_r	subtalar_angle_r	mtp_angle_r	hip_flexion_l	hip_adduction_l	hip_rotation_l	knee_angle_l	knee_angle_l_beta	ankle_angle_l	subtalar_angle_l	mtp_angle_l	lumbar_extension	lumbar_bending	lumbar_rotation	arm_flex_r	arm_add_r	arm_rot_r	elbow_flex_r	pro_sup_r	arm_flex_l	arm_add_l	arm_rot_l	elbow_flex_l	pro_sup_l
      0.34000000	      0.04730867	     -2.66148822	      0.96973788	      0.47808363	      0.96671748	     -0.15010900	     -4.92370970	      9.65636805	      3.76942213	      2.26538550	      0.03953844	      7.99379260	     -5.80372799	     -6.59982693	     29.02715459	     -4.56910775	     -2.23182244	     45.31301593	      0.79086132	     -0.68244857	    -11.73027039	     -6.59982693	     -6.37042754	      0.46321128	      9.43298157	      9.00134084	     -5.28723252	     -2.01140769	     36.40217614	    104.22823328	     -5.14880992	     -2.32962241	    -10.75704977	     18.24037681	     98.83079306
      0.35000000	      0.14202725	     -2.64824540	      0.50279661	      0.48828941	      0.96626125	     -0.15013937	     -5.91598959	      9.54352613	      3.65964087	      1.96812024	      0.03435018	      9.04884497	     -4.38274438	     -6.67934525	     28.69541546	     -4.52030768	     -2.80892971	     41.32938532	      0.72133385	     -1.07724254	    -11.10009001	     -6.67934525	     -6.53673940	      0.53535000	     10.03917697	      9.17747791	     -5.25302201	     -2.65434353	     37.10322335	    104.66531440	     -6.50989899	     -1.99577725	    -13.41292747	     18.45963839	     98.15505411
      0.36000000	     -0.00263474	     -2.67718390	      0.07778596	      0.49848771	      0.96530465	     -0.15024097	     -6.66198526	      9.48554793	      3.98832714	      1.63234337	      0.02848977	      9.47124121	     -4.09798037	     -6.69878332	     28.55764635	     -4.47448115	     -3.33041979	     37.21161293	      0.64946517	     -1.29205659	    -10.17294320	     -6.69878332	     -6.36187265	      0.67641402	     10.52970168	      9.37500152	     -5.32732419	     -2.58541312	     37.53805610	    104.71666523	     -7.85291756	     -1.94855723	    -13.97458541	     18.04166673	     97.99786088
      0.37000000	     -0.21560691	     -2.73141715	     -0.28718209	      0.50873655	      0.96408685	     -0.15046165	     -7.30809093	      9.44628098	      4.14910466	      1.34445986	      0.02346525	      9.92965424	     -3.70443666	     -6.71386002	     28.39744104	     -4.41451525	     -3.84046278	     32.93008900	      0.57473848	     -1.48002884	     -9.14486154	     -6.71386002	     -6.10272057	      0.85117766	     10.98513205	      9.49997698	     -5.38165395	     -2.64367879	     37.99806309	    104.72541835	     -9.18078133	     -1.90471645	    -14.53347026	     17.72699540	     97.83537559
      0.38000000	     -0.58305800	     -2.83655084	     -0.58494832	      0.51898918	      0.96250490	     -0.15083368	     -7.75333867	      9.46044436	      4.29307107	      1.12292958	      0.01959882	     10.30359961	     -3.27019728	     -6.72461736	     28.32883777	     -4.33262024	     -4.18622986	     28.56181112	      0.49849764	     -1.48910054	     -8.04906835	     -6.72461736	     -5.66181564	      1.07670900	     11.30719336	      9.58320852	     -5.40054846	     -2.71786781	     38.47688652	    104.70378664	    -10.54399954	     -1.85185983	    -14.99335371	     17.44763072	     97.67832781
      0.39000000	     -0.88775400	     -2.96026585	     -0.84474908	      0.52932655	      0.96086159	     -0.15132285	     -8.25707410	      9.48360906	      4.35199243	      0.94413139	      0.01647820	     10.76251512	     -2.79643431	     -6.73495193	     28.10882707	     -4.27087587	     -4.67648989	     24.13117781	      0.42116851	     -1.43504674	     -6.76822412	     -6.73495193	     -5.29020237	      1.35216881	     11.60612660	      9.65643088	     -5.42284456	     -2.82202564	     38.94997078	    104.67019346	    -11.84827705	     -1.80734009	    -15.47384931	     17.24600497	     97.51267932
      0.40000000	     -0.88558859	     -3.04981396	     -1.03036176	      0.53991212	      0.95951280	     -0.15194636	     -9.05598484	      9.44230968	      3.60204596	      0.85375104	      0.01490077	     12.06207774	     -0.69208596	     -6.79349442	     27.48685168	     -4.22167329	     -5.67696197	     19.77560486	      0.34514942	     -0.85336683	     -4.36298153	     -6.79349442	     -5.31268189	      1.53239001	     11.81195993	      9.74703762	     -5.33590335	     -3.26480847	     39.52272605	    104.97353597	    -13.22526323	     -1.50810418	    -17.92521443	     17.91688330	     97.24096288
      0.41000000	     -1.43155810	     -3.28352891	     -1.22121022	      0.55035728	      0.95721092	     -0.15265996	     -9.25802530	      9.59026601	      3.77429044	      0.77060694	      0.01344963	     12.25736094	     -0.56427272	     -6.80127259	     27.52535045	     -4.19103872	     -6.04399165	     15.70550912	      0.27411284	     -0.58563865	     -3.22919128	     -6.80127259	     -4.61487835	      1.94745202	     11.90551753	      9.76391065	     -5.34068610	     -3.24053942	     39.92688944	    104.91393006	    -14.57319076	     -1.42686041	    -18.18996652	     17.65292403	     97.12816649
      0.42000000	     -1.44863107	     -3.31968751	     -1.41517607	      0.56093915	      0.95565932	     -0.15332040	    -10.05125074	      9.49399463	      3.76690724	      0.67592957	      0.01179720	     12.93747851	     -0.05181318	     -6.82246721	     26.86038953	     -4.03913293	     -7.04398268	     11.71823167	      0.20452173	     -0.27279991	     -0.79302017	     -6.82246721	     -4.64590243	      2.04458443	     12.13322173	      9.85958438	     -5.34984859	     -3.29911656	     40.36430002	    104.97350088	    -15.65032316	     -1.34332441	    -18.97607584	     17.61917448	     97.04623415
      0.43000000	     -1.97083175	     -3.52571925	     -1.56365602	      0.57149842	      0.95320476	     -0.15412740	    -10.24442354	      9.60488791	      3.93556846	      0.66670104	      0.01163613	     13.20812612	      0.15177284	     -6.82947718	     26.94072711	     -3.98325912	     -7.27590933	      8.46557949	      0.14775224	      0.20972250	      0.51494407	     -6.82947718	     -3.97471772	      2.39769623	     12.17665384	      9.84071081	     -5.32978299	     -3.31671300	     40.73770206	    104.95445224	    -16.83909144	     -1.27019333	    -19.28322576	     17.31172818	     96.95761195
      0.44000000	     -2.21803514	     -3.63393535	     -1.70692695	      0.58207733	      0.95112709	     -0.15487783	    -10.72241265	      9.59584157	      4.14034270	      0.66164604	      0.01154790	     13.65970375	      0.33847431	     -6.83745810	     26.73302757	     -3.88020184	     -7.56686920	      5.71026649	      0.09966295	      0.63474517	      2.15343001	     -6.83745810	     -3.70828739	      2.57461776	     12.29892641	      9.85409881	     -5.32403734	     -3.34025253	     41.09744721	    104.96895554	    -17.81100710	     -1.22160145	    -19.67157300	     16.96967332	     96.87878246
      0.45000000	     -2.41195199	     -3.74659972	     -1.85701466	      0.59267289	      0.94906026	     -0.15556269	    -11.23577615	      9.59033662	      4.35755970	      0.70760560	      0.01235005	     14.07748277	      0.50750704	     -6.84529100	     26.65272026	     -3.85145168	     -7.95463647	      3.83443329	      0.06692349	      1.23270923	      3.51738308	     -6.84529100	     -3.51081636	      2.72484921	     12.36315176	      9.89656231	     -5.28004858	     -3.37417098	     41.46335477	    104.99306879	    -18.68525723	     -1.15802050	    -20.06830051	     16.56260832	     96.80322021
      0.46000000	     -2.45400565	     -3.84525031	     -2.03472355	      0.60335518	      0.94720904	     -0.15618022	    -11.88386783	      9.55726758	      4.52724500	      0.80604190	      0.01406809	     14.70497558	      0.75227883	     -6.86554048	     26.61758825	     -3.92756101	     -8.91992784	      2.96405612	      0.05173254	      2.38536825	      5.62843354	     -6.86554048	     -3.50879221	      2.84229446	     12.51852789	      9.90324572	     -5.24774729	     -3.47795623	     41.84286595	    105.05935241	    -19.36745430	     -1.05866010	    -20.88620624	     16.18701742	     96.72822397
